<svg width="64" height="90" viewBox="0 0 64 90" fill="none" xmlns="http://www.w3.org/2000/svg">
<g clip-path="url(#clip0)">
<path d="M63.5451 85.6877C63.5451 88.0363 61.6443 89.945 59.2957 89.945L4.34369 90.0079C2.47425 90.0079 0.88759 88.8061 0.314191 87.133C0.16495 86.701 0.0864025 86.2454 0.0864025 85.7663L0 6.51947C0 4.17089 1.90086 2.26218 4.24943 2.26218L54.7085 2.2072L59.2014 2.19934C61.55 2.19934 63.4587 4.1002 63.4587 6.44877L63.5451 85.6877Z" fill="url(#paint0_linear)"/>
<path d="M57.8504 85.2322L5.78113 85.2872C4.51651 85.2872 3.49539 84.266 3.49539 83.0014L3.41684 9.25295C3.41684 7.98834 4.43796 6.96721 5.70258 6.96721L57.764 6.91223C59.0286 6.91223 60.0498 7.93335 60.0498 9.19797L60.1283 82.9464C60.1362 84.2032 59.115 85.2322 57.8504 85.2322Z" fill="white"/>
<path d="M50.5376 12.9918L12.5598 13.0389C11.303 13.0389 10.274 12.0178 10.274 10.7611L10.2662 4.43012C10.2662 3.17335 11.2873 2.14438 12.5441 2.14438L50.5298 2.1051C51.7865 2.1051 52.8155 3.12622 52.8155 4.38299L52.8233 10.7139C52.8155 11.9707 51.7944 12.9918 50.5376 12.9918ZM12.5441 3.30688C11.9314 3.30688 11.4287 3.80959 11.4287 4.42226L11.4365 10.7532C11.4365 11.3659 11.9392 11.8686 12.5519 11.8686L50.5376 11.8293C51.1503 11.8293 51.653 11.3266 51.653 10.7139L51.6451 4.38299C51.6451 3.77031 51.1424 3.26761 50.5298 3.26761L12.5441 3.30688Z" fill="url(#paint1_linear)"/>
<path d="M49.4615 4.8464L13.9972 4.88567C13.6044 4.88567 13.2903 4.57148 13.2903 4.17874V0.746204C13.2903 0.353465 13.6044 0.0392739 13.9972 0.0392739L49.4537 0C49.8464 0 50.1606 0.314191 50.1606 0.70693V4.13947C50.1684 4.5322 49.8543 4.8464 49.4615 4.8464Z" fill="url(#paint2_linear)"/>
<path d="M14.0286 4.88567L49.4301 4.84639C49.8385 4.84639 50.1684 4.51649 50.1684 4.10804V2.42712L13.2824 2.4664V4.14732C13.2824 4.55577 13.6202 4.88567 14.0286 4.88567Z" fill="#58D6F4"/>
<path d="M26.4706 76.9375L23.4072 58.4002L20.9251 66.4671L13.8244 66.4749C13.3924 66.4749 13.0468 66.1293 13.0468 65.6973C13.0468 65.2653 13.3924 64.9197 13.8244 64.9197L19.7862 64.9118L23.8785 51.6294L26.9419 70.2138L30.9164 57.4498L33.0293 63.498L37.7893 51.9593L42.4158 70.2609L44.1595 64.4405L49.2651 64.4327C49.6972 64.4327 50.0428 64.7783 50.0428 65.2103C50.0428 65.6423 49.6972 65.9879 49.2651 65.9879L45.3142 65.9958L42.2901 76.0892L37.4359 56.8921L32.9037 67.8652L30.9949 62.4061L26.4706 76.9375Z" fill="#58D6F4"/>
<path d="M21.2079 41.1983L11.2244 41.2061C9.61421 41.2061 8.29461 39.8944 8.29461 38.2842L8.2789 24.3262C8.2789 22.716 9.59065 21.3964 11.2009 21.3964L21.1843 21.3885C22.7945 21.3885 24.1141 22.7003 24.1141 24.3105L24.1298 38.2685C24.1298 39.8787 22.8181 41.1904 21.2079 41.1983ZM11.193 22.2447C10.0462 22.2447 9.11936 23.1794 9.11936 24.3262L9.13507 38.2842C9.13507 39.431 10.0698 40.3578 11.2166 40.3578L21.2 40.35C22.3468 40.35 23.2737 39.4153 23.2737 38.2685L23.258 24.3105C23.258 23.1637 22.3232 22.2369 21.1764 22.2369L11.193 22.2447Z" fill="url(#paint3_linear)"/>
<path d="M16.2044 38.5198C20.9251 38.512 22.3939 35.7864 22.3939 35.7864C22.1819 35.5193 21.9148 35.2837 21.5535 35.048C20.3124 34.239 19.3149 33.8934 18.8986 33.5478C18.4744 33.21 18.2388 32.7152 18.2388 32.7152L17.9796 32.8723C17.9796 32.8723 17.8225 32.3303 17.9089 31.5055C17.9089 31.5055 18.278 31.4113 18.553 30.1624C18.9928 30.2488 19.5112 29.1334 19.2677 28.7249C19.1107 28.4579 18.9221 28.4814 18.7886 28.5443C18.9221 27.9866 19.527 24.8997 16.1965 24.8997C12.8661 24.8997 13.4709 27.9866 13.6123 28.5443C13.4788 28.4814 13.2903 28.4579 13.1332 28.7249C12.8897 29.1334 13.4159 30.2488 13.8558 30.1624C14.1307 31.4113 14.5078 31.4977 14.5078 31.4977C14.602 32.3146 14.4371 32.8644 14.4371 32.8644L14.1779 32.7073C14.1779 32.7073 13.9422 33.1943 13.5181 33.5399C13.0939 33.8855 12.1042 34.239 10.8631 35.048C10.5018 35.2837 10.2269 35.5193 10.0227 35.7864C10.0148 35.8021 11.4915 38.5277 16.2044 38.5198Z" fill="url(#paint4_linear)"/>
<path d="M47.2936 25.8422L28.073 25.8658C27.7116 25.8658 27.421 25.5751 27.421 25.2138V25.1039C27.421 24.7425 27.7116 24.4519 28.073 24.4519L47.2936 24.4283C47.6549 24.4283 47.9455 24.719 47.9455 25.0803V25.1903C47.9455 25.5516 47.6471 25.8422 47.2936 25.8422Z" fill="url(#paint5_linear)"/>
<path d="M40.2243 29.5025L28.073 29.5182C27.7116 29.5182 27.421 29.2276 27.421 28.8663V28.7563C27.421 28.395 27.7116 28.1043 28.073 28.1043L40.2243 28.0886C40.5856 28.0886 40.8762 28.3793 40.8762 28.7406V28.8505C40.8762 29.2119 40.5856 29.5025 40.2243 29.5025Z" fill="url(#paint6_linear)"/>
<path opacity="0.6" d="M53.923 33.854L28.0808 33.8855C27.7195 33.8855 27.4289 33.5948 27.4289 33.2335V33.1236C27.4289 32.7622 27.7195 32.4716 28.0808 32.4716L53.923 32.4402C54.2843 32.4402 54.575 32.7308 54.575 33.0921V33.2021C54.5671 33.5634 54.2765 33.854 53.923 33.854Z" fill="url(#paint7_linear)"/>
<path opacity="0.6" d="M53.3653 46.0839L10.2583 46.131C9.88916 46.131 9.58282 45.8326 9.58282 45.4555V45.3927C9.58282 45.0235 9.88131 44.7172 10.2583 44.7172L53.3653 44.67C53.7345 44.67 54.0408 44.9685 54.0408 45.3456V45.4084C54.0408 45.7854 53.7345 46.0839 53.3653 46.0839Z" fill="url(#paint8_linear)"/>
<path opacity="0.6" d="M53.923 38.1271L28.0808 38.1585C27.7195 38.1585 27.4289 37.8679 27.4289 37.5066V37.3966C27.4289 37.0353 27.7195 36.7447 28.0808 36.7447L53.923 36.7133C54.2843 36.7133 54.575 37.0039 54.575 37.3652V37.4752C54.575 37.8365 54.2843 38.1271 53.923 38.1271Z" fill="url(#paint9_linear)"/>
</g>
<defs>
<linearGradient id="paint0_linear" x1="-8.79981" y1="32.9191" x2="72.3449" y2="59.2847" gradientUnits="userSpaceOnUse">
<stop stop-color="#6CBCFC"/>
<stop offset="0.1713" stop-color="#5EABFC"/>
<stop offset="0.4084" stop-color="#509AFC"/>
<stop offset="0.6698" stop-color="#4890FC"/>
<stop offset="1" stop-color="#458DFC"/>
</linearGradient>
<linearGradient id="paint1_linear" x1="-4.95" y1="-20.25" x2="52.8171" y2="7.56922" gradientUnits="userSpaceOnUse">
<stop stop-color="#CFE9FF"/>
<stop offset="1" stop-color="#A1D6FB"/>
</linearGradient>
<linearGradient id="paint2_linear" x1="13.2813" y1="2.44375" x2="50.1678" y2="2.44375" gradientUnits="userSpaceOnUse">
<stop stop-color="#B0F4FF"/>
<stop offset="1" stop-color="#69DCFC"/>
</linearGradient>
<linearGradient id="paint3_linear" x1="13.391" y1="27.6703" x2="22.6568" y2="39.6317" gradientUnits="userSpaceOnUse">
<stop stop-color="#6CBCFC"/>
<stop offset="1" stop-color="#458DFC"/>
</linearGradient>
<linearGradient id="paint4_linear" x1="12.386" y1="28.4489" x2="21.6519" y2="40.4103" gradientUnits="userSpaceOnUse">
<stop stop-color="#B0F4FF"/>
<stop offset="0.0994384" stop-color="#A1EFFE"/>
<stop offset="0.2994" stop-color="#88E7FD"/>
<stop offset="0.5095" stop-color="#77E1FD"/>
<stop offset="0.7344" stop-color="#6CDDFC"/>
<stop offset="1" stop-color="#69DCFC"/>
</linearGradient>
<linearGradient id="paint5_linear" x1="27.4221" y1="25.1535" x2="47.9414" y2="25.1658" gradientUnits="userSpaceOnUse">
<stop stop-color="#6CBCFC"/>
<stop offset="1" stop-color="#458DFC"/>
</linearGradient>
<linearGradient id="paint6_linear" x1="27.4259" y1="28.8034" x2="40.8754" y2="28.8034" gradientUnits="userSpaceOnUse">
<stop stop-color="#6CBCFC"/>
<stop offset="1" stop-color="#458DFC"/>
</linearGradient>
<linearGradient id="paint7_linear" x1="27.4303" y1="33.1671" x2="54.5706" y2="33.1671" gradientUnits="userSpaceOnUse">
<stop stop-color="#6CBCFC"/>
<stop offset="1" stop-color="#458DFC"/>
</linearGradient>
<linearGradient id="paint8_linear" x1="9.58245" y1="45.4047" x2="54.0387" y2="45.4047" gradientUnits="userSpaceOnUse">
<stop stop-color="#6CBCFC"/>
<stop offset="1" stop-color="#458DFC"/>
</linearGradient>
<linearGradient id="paint9_linear" x1="27.4347" y1="37.4392" x2="54.5749" y2="37.4392" gradientUnits="userSpaceOnUse">
<stop stop-color="#6CBCFC"/>
<stop offset="1" stop-color="#458DFC"/>
</linearGradient>
<clipPath id="clip0">
<rect width="63.5451" height="90" fill="white"/>
</clipPath>
</defs>
</svg>
