<svg width="66" height="90" viewBox="0 0 66 90" fill="none" xmlns="http://www.w3.org/2000/svg">
<g clip-path="url(#clip0)">
<path d="M65.496 28.0383L65.2931 70.1804L65.2593 78.3315C65.2254 84.8083 59.0699 90.0338 51.4938 90L13.6471 89.8309C6.08793 89.7802 -0.0338216 84.5039 2.37325e-07 78.0101L0.236753 27.717C0.253664 22.4746 4.31229 18.044 9.85907 16.5727L9.87598 13.867V12.4803L55.9921 12.7001L55.9752 16.7926C61.505 18.3315 65.5129 22.779 65.496 28.0383Z" fill="url(#paint0_linear)"/>
<path d="M59.425 1.87711V2.24915L59.3912 6.646L59.3574 10.9583V11.4825C59.3574 12.2943 58.681 12.9538 57.8692 12.9538H57.5141L55.2819 12.9369L52.8298 12.92L50.5975 12.903L48.1454 12.8861L45.8794 12.8523L43.4273 12.8354L41.195 12.8185L38.726 12.8016L36.4769 12.7847L34.0248 12.7678L31.7926 12.7339L29.3405 12.717L27.1082 12.7001L24.6392 12.6832L22.3901 12.6663L19.9549 12.6494L17.7227 12.6325L15.2706 12.6156L13.0214 12.5986L10.5693 12.5817L8.32019 12.5648H7.96506C7.15333 12.5648 6.4938 11.8884 6.4938 11.0767V11.0598V10.6877L6.56145 1.99549V1.47125C6.56145 0.659526 7.23789 0 8.06652 0H8.42165L13.1229 0.0338219L17.8241 0.0676437L20.0733 0.0845547L22.5254 0.101466L24.7576 0.118377L29.4419 0.169109L31.894 0.18602L34.1263 0.202931L36.5784 0.219842L38.8106 0.236753L41.2627 0.253664L43.4949 0.270575L45.947 0.287486L48.1793 0.304397L50.6652 0.338219L52.8974 0.35513L55.3495 0.372041L57.5987 0.388952H57.9538C58.7824 0.405862 59.425 1.06539 59.425 1.87711Z" fill="url(#paint1_linear)"/>
<path d="M59.425 2.26606L59.3912 6.64599L59.3574 10.9583L57.345 10.9414L54.6731 10.9245L52.221 10.9075H49.5321L47.0801 10.8906L44.4081 10.8737L41.956 10.8568H39.2672L36.8151 10.8399L34.1263 10.823L31.6911 10.8061H29.0023L26.5502 10.7892L23.8613 10.7723L21.4092 10.7554H18.7373L16.2852 10.7384L13.5964 10.7215L11.1443 10.7046H8.47238L6.4938 10.6877L6.56145 1.99548L11.2627 2.01239L16.3867 2.04622L18.8388 2.06313L21.5276 2.08004H23.9797L29.1037 2.11386L31.7926 2.13077H34.2447L36.9335 2.14768L39.3687 2.16459L42.0575 2.1815H44.5096L47.1984 2.19841L49.6336 2.21533L52.3224 2.23224H54.7745L57.4634 2.24915L59.425 2.26606Z" fill="url(#paint2_linear)"/>
<path d="M65.4465 36.9361L0.187159 36.6275L0.0503221 65.5621L65.3096 65.8707L65.4465 36.9361Z" fill="#F7F9FC"/>
<path d="M65.458 36.936L0.1987 36.6275L0.174076 41.8361L65.4334 42.1446L65.458 36.936Z" fill="#FBFCF7"/>
<path d="M25.637 48.2616L21.4262 48.2446L21.4431 44.0169L15.6426 44L15.6257 48.2108L11.4149 48.1939L11.3811 53.9775L15.5919 53.9944L15.575 58.2221L21.3754 58.239L21.3923 54.0282L25.6032 54.0451L25.637 48.2616Z" fill="url(#paint3_linear)"/>
<path d="M54.2503 49.6651L33.3822 49.5637C32.8241 49.5637 32.3675 49.1071 32.3675 48.549V48.0755C32.3675 47.5174 32.8241 47.0609 33.3822 47.0609L54.2503 47.1623C54.8083 47.1623 55.2649 47.6189 55.2649 48.177V48.6505C55.2649 49.2085 54.8083 49.6651 54.2503 49.6651Z" fill="url(#paint4_linear)"/>
<path opacity="0.5" d="M54.2334 55.8715L33.3653 55.77C32.8072 55.77 32.3506 55.3134 32.3506 54.7554V54.2819C32.3506 53.7238 32.8072 53.2672 33.3653 53.2672L54.2334 53.3687C54.7914 53.3687 55.248 53.8253 55.248 54.3833V54.8568C55.248 55.4149 54.7914 55.8715 54.2334 55.8715Z" fill="url(#paint5_linear)"/>
<path opacity="0.08" d="M6.35294 1.48816V1.8602L6.38676 6.25705L6.42058 10.5524V11.0767C6.42058 11.8884 7.09702 12.5479 7.90875 12.5479H8.26388L10.513 12.531L12.9651 12.5141L15.1974 12.4972L17.6494 12.4803L19.8817 12.4634L22.3338 12.4464L24.566 12.4295L27.0181 12.4126L29.2673 12.3957L31.7193 12.3788L33.9516 12.3619L36.4037 12.345L38.6359 12.3281L41.088 12.3112L43.3372 12.2943L45.7892 12.2773L48.0215 12.2604L50.4736 12.2435L52.7058 12.2266L55.1579 12.2097L57.4071 12.1928H57.7622C58.5739 12.1928 59.2334 11.5163 59.2334 10.7046V10.6877V10.3157C33.0722 11.4487 7.82419 0 7.82419 0C7.01247 0.0169109 6.35294 0.676437 6.35294 1.48816Z" fill="#1A6FB5"/>
</g>
<defs>
<linearGradient id="paint0_linear" x1="-1.08674e-07" y1="12" x2="60.5" y2="95.5" gradientUnits="userSpaceOnUse">
<stop stop-color="#6CBCFC"/>
<stop offset="1" stop-color="#458DFC"/>
</linearGradient>
<linearGradient id="paint1_linear" x1="-666.985" y1="-42.2799" x2="-29.2278" y2="2.14101" gradientUnits="userSpaceOnUse">
<stop stop-color="#B0F4FF"/>
<stop offset="0.0525488" stop-color="#A9F2FF"/>
<stop offset="0.2879" stop-color="#8DE8FE"/>
<stop offset="0.5247" stop-color="#79E1FD"/>
<stop offset="0.7618" stop-color="#6DDDFC"/>
<stop offset="1" stop-color="#69DCFC"/>
</linearGradient>
<linearGradient id="paint2_linear" x1="6.50111" y1="6.47271" x2="59.4273" y2="6.47271" gradientUnits="userSpaceOnUse">
<stop stop-color="#B0F4FF"/>
<stop offset="0.0525488" stop-color="#A9F2FF"/>
<stop offset="0.2879" stop-color="#8DE8FE"/>
<stop offset="0.5247" stop-color="#79E1FD"/>
<stop offset="0.7618" stop-color="#6DDDFC"/>
<stop offset="1" stop-color="#69DCFC"/>
</linearGradient>
<linearGradient id="paint3_linear" x1="23.2707" y1="45.6304" x2="13.3385" y2="57.0838" gradientUnits="userSpaceOnUse">
<stop stop-color="#6CBCFC"/>
<stop offset="1" stop-color="#458DFC"/>
</linearGradient>
<linearGradient id="paint4_linear" x1="55.4662" y1="48.3575" x2="30.5859" y2="48.3575" gradientUnits="userSpaceOnUse">
<stop stop-color="#6CBCFC"/>
<stop offset="1" stop-color="#458DFC"/>
</linearGradient>
<linearGradient id="paint5_linear" x1="32.3491" y1="54.5635" x2="55.2484" y2="54.5635" gradientUnits="userSpaceOnUse">
<stop stop-color="#6CBCFC"/>
<stop offset="1" stop-color="#458DFC"/>
</linearGradient>
<clipPath id="clip0">
<rect width="65.496" height="90" fill="white"/>
</clipPath>
</defs>
</svg>
