<svg width="66" height="90" viewBox="0 0 66 90" fill="none" xmlns="http://www.w3.org/2000/svg">
<g clip-path="url(#clip0)">
<path d="M65.7687 4.08343V85.9315C65.7687 88.1901 63.9438 90.015 61.6852 90.015H4.08343C1.82483 90 0 88.1752 0 85.9315V4.08343C0 1.82483 1.82483 0 4.08343 0H61.7002C63.9438 0 65.7687 1.82483 65.7687 4.08343Z" fill="url(#paint0_linear)"/>
<path d="M61.5789 7.52837V82.4715C61.5789 84.5396 59.9755 86.2105 57.9909 86.2105H7.37748C5.3929 86.1968 3.78946 84.5259 3.78946 82.4715V7.52837C3.78946 5.46031 5.3929 3.78943 7.37748 3.78943H58.0041C59.9755 3.78943 61.5789 5.46031 61.5789 7.52837Z" fill="url(#paint1_linear)"/>
<path d="M25.4587 17.291V21.0154C25.4587 21.2847 25.2493 21.4941 24.98 21.4941H20.418C20.1487 21.4941 19.9393 21.7035 19.9393 21.9727V26.5348C19.9393 26.804 19.7299 27.0134 19.4607 27.0134H15.7362C15.467 27.0134 15.2576 26.804 15.2576 26.5348V21.9727C15.2576 21.7035 15.0482 21.4941 14.7789 21.4941H10.2318C9.96258 21.4941 9.75317 21.2847 9.75317 21.0154V17.291C9.75317 17.0217 9.96258 16.8123 10.2318 16.8123H14.7939C15.0631 16.8123 15.2725 16.6029 15.2725 16.3337V11.7716C15.2725 11.5024 15.4819 11.293 15.7512 11.293H19.4756C19.7449 11.293 19.9543 11.5024 19.9543 11.7716V16.3337C19.9543 16.6029 20.1637 16.8123 20.4329 16.8123H24.98C25.2493 16.8123 25.4587 17.0217 25.4587 17.291Z" fill="url(#paint2_linear)"/>
<path opacity="0.5" d="M55.4928 37.5885H10.2759C9.97672 37.5885 9.7374 37.3491 9.7374 37.05V35.3299C9.7374 35.0307 9.97672 34.7914 10.2759 34.7914H55.4928C55.7919 34.7914 56.0312 35.0307 56.0312 35.3299V37.05C56.0163 37.3491 55.7919 37.5885 55.4928 37.5885Z" fill="url(#paint3_linear)"/>
<path d="M55.4928 16.1542H33.0563C32.7572 16.1542 32.5179 15.9149 32.5179 15.6157V13.9105C32.5179 13.6114 32.7572 13.3721 33.0563 13.3721H55.4928C55.7919 13.3721 56.0312 13.6114 56.0312 13.9105V15.6307C56.0163 15.9149 55.7919 16.1542 55.4928 16.1542Z" fill="url(#paint4_linear)"/>
<path opacity="0.5" d="M48.8516 23.4235H33.0563C32.7572 23.4235 32.5179 23.1842 32.5179 22.8851V21.1649C32.5179 20.8658 32.7572 20.6265 33.0563 20.6265H48.8516C49.1507 20.6265 49.39 20.8658 49.39 21.1649V22.8851C49.3751 23.1842 49.1507 23.4235 48.8516 23.4235Z" fill="url(#paint5_linear)"/>
<path opacity="0.5" d="M55.4928 45.7553H10.2759C9.97672 45.7553 9.7374 45.516 9.7374 45.2168V43.4967C9.7374 43.1976 9.97672 42.9583 10.2759 42.9583H55.4928C55.7919 42.9583 56.0312 43.1976 56.0312 43.4967V45.2168C56.0163 45.516 55.7919 45.7553 55.4928 45.7553Z" fill="url(#paint6_linear)"/>
<path opacity="0.5" d="M55.4928 53.9222H10.2759C9.97672 53.9222 9.7374 53.6829 9.7374 53.3837V51.6636C9.7374 51.3644 9.97672 51.1251 10.2759 51.1251H55.4928C55.7919 51.1251 56.0312 51.3644 56.0312 51.6636V53.3987C56.0163 53.6829 55.7919 53.9222 55.4928 53.9222Z" fill="url(#paint7_linear)"/>
<path opacity="0.5" d="M55.4928 62.104H10.2759C9.97672 62.104 9.7374 61.8646 9.7374 61.5655V59.8454C9.7374 59.5462 9.97672 59.3069 10.2759 59.3069H55.4928C55.7919 59.3069 56.0312 59.5462 56.0312 59.8454V61.5655C56.0163 61.8646 55.7919 62.104 55.4928 62.104Z" fill="url(#paint8_linear)"/>
<path opacity="0.5" d="M55.4928 70.2709H10.2759C9.97672 70.2709 9.7374 70.0315 9.7374 69.7324V68.0122C9.7374 67.7131 9.97672 67.4738 10.2759 67.4738H55.4928C55.7919 67.4738 56.0312 67.7131 56.0312 68.0122V69.7324C56.0163 70.0315 55.7919 70.2709 55.4928 70.2709Z" fill="url(#paint9_linear)"/>
<path opacity="0.5" d="M55.4928 78.4377H10.2759C9.97672 78.4377 9.7374 78.1984 9.7374 77.8992V76.1791C9.7374 75.8799 9.97672 75.6406 10.2759 75.6406H55.4928C55.7919 75.6406 56.0312 75.8799 56.0312 76.1791V77.8992C56.0163 78.1984 55.7919 78.4377 55.4928 78.4377Z" fill="url(#paint10_linear)"/>
<path opacity="0.1" d="M65.7687 4.08343V85.9315C65.7687 88.1901 63.9438 90.015 61.6852 90.015H4.08343C1.82483 90 0 88.1752 0 85.9315V84.5106C35.1354 70.0017 51.4991 14.3593 55.1936 0H61.6852C63.9438 0 65.7687 1.82483 65.7687 4.08343Z" fill="#1A6FB5" fill-opacity="0.4"/>
</g>
<defs>
<linearGradient id="paint0_linear" x1="90" y1="119.368" x2="-5.68422" y2="-5.21052" gradientUnits="userSpaceOnUse">
<stop offset="0.3061" stop-color="#5BA7FC"/>
<stop offset="1" stop-color="#69B8FC"/>
</linearGradient>
<linearGradient id="paint1_linear" x1="8.17018" y1="6.67477" x2="54.8891" y2="73.9243" gradientUnits="userSpaceOnUse">
<stop offset="0.3061" stop-color="white"/>
<stop offset="1" stop-color="white"/>
</linearGradient>
<linearGradient id="paint2_linear" x1="9.4745" y1="8.99998" x2="23.685" y2="32.2105" gradientUnits="userSpaceOnUse">
<stop stop-color="#B0F4FF"/>
<stop offset="0.368525" stop-color="#80E4FD"/>
<stop offset="1" stop-color="#6CDDFC"/>
</linearGradient>
<linearGradient id="paint3_linear" x1="9.74894" y1="36.1963" x2="56.0231" y2="36.1963" gradientUnits="userSpaceOnUse">
<stop stop-color="#6CBCFC"/>
<stop offset="1" stop-color="#458DFC"/>
</linearGradient>
<linearGradient id="paint4_linear" x1="32.5183" y1="14.7641" x2="56.0231" y2="14.7641" gradientUnits="userSpaceOnUse">
<stop stop-color="#6CBCFC"/>
<stop offset="1" stop-color="#458DFC"/>
</linearGradient>
<linearGradient id="paint5_linear" x1="32.5183" y1="22.0372" x2="49.3821" y2="22.0372" gradientUnits="userSpaceOnUse">
<stop stop-color="#6CBCFC"/>
<stop offset="1" stop-color="#458DFC"/>
</linearGradient>
<linearGradient id="paint6_linear" x1="9.74894" y1="44.3668" x2="56.0231" y2="44.3668" gradientUnits="userSpaceOnUse">
<stop stop-color="#6CBCFC"/>
<stop offset="1" stop-color="#458DFC"/>
</linearGradient>
<linearGradient id="paint7_linear" x1="9.74894" y1="52.5374" x2="56.0231" y2="52.5374" gradientUnits="userSpaceOnUse">
<stop stop-color="#6CBCFC"/>
<stop offset="1" stop-color="#458DFC"/>
</linearGradient>
<linearGradient id="paint8_linear" x1="9.74894" y1="60.7079" x2="56.0231" y2="60.7079" gradientUnits="userSpaceOnUse">
<stop stop-color="#6CBCFC"/>
<stop offset="1" stop-color="#458DFC"/>
</linearGradient>
<linearGradient id="paint9_linear" x1="9.74894" y1="68.8785" x2="56.0231" y2="68.8785" gradientUnits="userSpaceOnUse">
<stop stop-color="#6CBCFC"/>
<stop offset="1" stop-color="#458DFC"/>
</linearGradient>
<linearGradient id="paint10_linear" x1="9.74894" y1="77.049" x2="56.0231" y2="77.049" gradientUnits="userSpaceOnUse">
<stop stop-color="#6CBCFC"/>
<stop offset="1" stop-color="#458DFC"/>
</linearGradient>
<clipPath id="clip0">
<rect width="65.7687" height="90" fill="white"/>
</clipPath>
</defs>
</svg>
